<svg viewBox="0 0 296 307" fill="none" xmlns="http://www.w3.org/2000/svg">
<path d="M262.573 233.636L262.567 233.775L269.492 307H218.96L212.41 262.027L209.527 305.847L157.635 305.271L163.147 247.739L167.834 221.072V221.067L168.538 217.054H261.195L261.316 218.507L262.573 233.636Z" fill="#2F2E41"/>
<path d="M129.031 276.085C134.383 277.06 139.964 271.034 141.496 262.624C142.166 258.942 141.95 255.415 141.046 252.53L141.866 247.682L155.637 182.465C155.637 182.465 180.995 131.74 180.995 122.934C180.994 114.128 173.659 109.81 173.659 109.81L163.734 109.902L132.608 185.923L127.003 242.099L126.096 249.806C124.233 252.187 122.786 255.411 122.116 259.093C120.583 267.503 123.68 275.11 129.031 276.085Z" fill="#FFB6B6"/>
<path d="M229.996 78.3853L220.771 57.0518L190.789 62.241L188.771 87.3405L229.996 78.3853Z" fill="#FFB6B6"/>
<path opacity="0.1" d="M229.996 78.3853L220.771 57.0518L190.789 62.241L188.771 87.3405L229.996 78.3853Z" fill="black"/>
<path d="M295.15 122.782C295.15 122.782 273.816 82.9979 269.78 78.9618C267.983 77.1651 265.159 77.1401 262.577 77.6638L232.879 67.4302L222.813 61.7744L222.15 72.5346L189.103 78.4661C189.286 71.9042 190.212 69.4082 190.212 69.4082L178.104 83.5745L154.464 95.1061L154.477 95.21C152.742 95.8155 151.097 96.8517 149.851 98.5656C145.239 104.908 132.554 182.17 132.554 182.17L159.653 187.936L163.341 164.792L165.995 185.629L168.013 224.549C168.013 224.549 204.915 256.261 222.789 244.729C240.663 233.197 262.573 233.774 262.573 233.774L263.12 215.734C263.509 215.112 263.726 214.747 263.726 214.747L263.149 150.755V133.728C267.542 139.847 272.843 145.11 279.005 147.575C299.186 155.647 295.15 122.782 295.15 122.782V122.782Z" fill="#E6E6E6"/>
<path d="M202.645 65.9947C217.879 65.9947 230.228 53.6454 230.228 38.4119C230.228 23.1783 217.879 10.8291 202.645 10.8291C187.412 10.8291 175.062 23.1783 175.062 38.4119C175.062 53.6454 187.412 65.9947 202.645 65.9947Z" fill="#FFB6B6"/>
<path d="M222.433 46.207C222.433 46.207 224.832 37.8122 230.229 38.4118C235.625 39.0115 236.824 34.2144 235.625 31.8159C234.426 29.4174 232.027 17.4249 232.027 17.4249C232.027 17.4249 233.227 9.03015 226.031 7.8309C218.836 6.63165 216.437 5.4324 215.238 3.03389C214.039 0.63539 196.05 -1.76311 190.054 1.83464C184.057 5.4324 179.26 12.3352 175.063 14.2804C170.866 16.2257 167.268 19.8234 169.666 25.8197C172.065 31.8159 175.543 43.5433 175.543 43.5433C175.543 43.5433 181.659 41.41 182.858 45.0077C184.057 48.6055 179.26 43.8085 185.257 34.2144C191.253 24.6204 191.253 15.0264 200.847 18.6242C210.441 22.2219 221.234 21.0227 220.035 28.2182C218.836 35.4137 222.433 46.207 222.433 46.207V46.207Z" fill="#2F2E41"/>
<path d="M220.747 264.873H11.2651C5.34093 264.873 0.521484 260.053 0.521484 254.129V142.853C0.521484 136.929 5.34093 132.109 11.2651 132.109H220.747C226.671 132.109 231.49 136.929 231.49 142.853V254.129C231.49 260.053 226.671 264.873 220.747 264.873Z" fill="white"/>
<path d="M220.747 264.873H11.2651C5.34093 264.873 0.521484 260.053 0.521484 254.129V142.853C0.521484 136.929 5.34093 132.109 11.2651 132.109H220.747C226.671 132.109 231.49 136.929 231.49 142.853V254.129C231.49 260.053 226.671 264.873 220.747 264.873ZM11.2651 133.903C6.33041 133.903 2.31558 137.918 2.31558 142.853V254.129C2.31558 259.064 6.33041 263.079 11.2651 263.079H220.747C225.681 263.079 229.696 259.064 229.696 254.129V142.853C229.696 137.918 225.681 133.903 220.747 133.903H11.2651Z" fill="#3F3D56"/>
<path d="M204.579 145.565C206.065 145.565 207.27 144.36 207.27 142.874C207.27 141.387 206.065 140.183 204.579 140.183C203.093 140.183 201.888 141.387 201.888 142.874C201.888 144.36 203.093 145.565 204.579 145.565Z" fill="#3F3D56"/>
<path d="M211.755 145.565C213.241 145.565 214.446 144.36 214.446 142.874C214.446 141.387 213.241 140.183 211.755 140.183C210.268 140.183 209.063 141.387 209.063 142.874C209.063 144.36 210.268 145.565 211.755 145.565Z" fill="#3F3D56"/>
<path d="M218.931 145.565C220.418 145.565 221.623 144.36 221.623 142.874C221.623 141.387 220.418 140.183 218.931 140.183C217.445 140.183 216.24 141.387 216.24 142.874C216.24 144.36 217.445 145.565 218.931 145.565Z" fill="#3F3D56"/>
<path d="M15.7714 186.381C15.0294 186.381 14.4258 186.984 14.4258 187.726C14.4258 188.088 14.5655 188.423 14.8191 188.67C15.0749 188.932 15.41 189.072 15.7714 189.072H217.137C217.879 189.072 218.483 188.468 218.483 187.726C218.483 187.365 218.343 187.03 218.09 186.783C217.834 186.521 217.499 186.381 217.137 186.381H15.7714Z" fill="#E6E6E6"/>
<path d="M192.02 185.933V189.521H15.7716C15.2783 189.521 14.8298 189.323 14.5068 188.992C14.1749 188.669 13.9775 188.22 13.9775 187.727C13.9775 186.74 14.7849 185.933 15.7716 185.933H192.02Z" fill="#009EDD"/>
<path d="M214.894 179.205H196.953C194.975 179.205 193.365 177.595 193.365 175.617C193.365 173.638 194.975 172.028 196.953 172.028H214.894C216.873 172.028 218.483 173.638 218.483 175.617C218.483 177.595 216.873 179.205 214.894 179.205Z" fill="#E6E6E6"/>
<path d="M97.3808 160.367H17.1165C15.138 160.367 13.5283 158.758 13.5283 156.779C13.5283 154.8 15.138 153.19 17.1165 153.19H97.3808C99.3593 153.19 100.969 154.8 100.969 156.779C100.969 158.758 99.3593 160.367 97.3808 160.367Z" fill="#E6E6E6"/>
<path d="M15.7714 226.748C15.0294 226.748 14.4258 227.352 14.4258 228.094C14.4258 228.455 14.5655 228.79 14.8191 229.037C15.0749 229.299 15.41 229.439 15.7714 229.439H217.137C217.879 229.439 218.483 228.836 218.483 228.094C218.483 227.732 218.343 227.397 218.09 227.15C217.834 226.888 217.499 226.748 217.137 226.748H15.7714Z" fill="#E6E6E6"/>
<path d="M122.947 226.3V229.888H15.7716C15.2783 229.888 14.8298 229.691 14.5068 229.359C14.1749 229.036 13.9775 228.587 13.9775 228.094C13.9775 227.107 14.7849 226.3 15.7716 226.3H122.947Z" fill="#009EDD"/>
<path d="M214.894 219.572H196.953C194.975 219.572 193.365 217.963 193.365 215.984C193.365 214.005 194.975 212.396 196.953 212.396H214.894C216.873 212.396 218.483 214.005 218.483 215.984C218.483 217.963 216.873 219.572 214.894 219.572Z" fill="#E6E6E6"/>
<path d="M246.303 68.1179C261.819 68.1179 274.398 55.8045 274.398 40.6151C274.398 25.4257 261.819 13.1123 246.303 13.1123C230.786 13.1123 218.208 25.4257 218.208 40.6151C218.208 55.8045 230.786 68.1179 246.303 68.1179Z" fill="#009EDD"/>
<path d="M255.838 26.743C252.098 33.5536 248.357 40.3644 244.617 47.175C242.233 42.9631 239.862 38.7438 237.473 34.5352C236.647 33.0817 234.403 34.389 235.23 35.8461C238 40.7249 240.742 45.6198 243.512 50.4986C243.985 51.3327 245.286 51.3521 245.755 50.4986C249.863 43.017 253.972 35.5355 258.081 28.0539C258.886 26.5879 256.644 25.2758 255.838 26.743Z" fill="white"/>
<path d="M285.086 113.109L257.095 99.7188C257.095 99.7188 255.971 90.7566 250.721 87.5599C249.829 85.4309 248.802 83.092 247.87 81.2387C245.563 76.6556 249.023 68.0068 246.14 68.0068C243.257 68.0068 238.995 77.1027 239.221 79.5385C239.394 81.4083 240.939 84.6728 241.259 87.5304C237.743 88.8563 234.907 91.1288 233.043 92.9382C231.429 94.504 230.829 96.8402 231.46 98.9985C233.288 105.253 237.855 118.169 244.41 118.169C253.059 118.169 255.365 116.44 255.365 116.44C255.365 116.44 273.239 138.926 286.501 140.656C299.762 142.386 285.086 113.109 285.086 113.109V113.109Z" fill="#FFB6B6"/>
</svg>
