<svg viewBox="0 0 14 15" fill="none" xmlns="http://www.w3.org/2000/svg">
<g clip-path="url(#clip0_221_594)">
<path d="M6.60002 6.00013H7.73335V4.30013H9.43335V3.1668H7.73335V1.4668H6.60002V3.1668H4.90002V4.30013H6.60002V6.00013ZM4.33335 11.1001C3.71002 11.1001 3.20568 11.6101 3.20568 12.2335C3.20568 12.8568 3.71002 13.3668 4.33335 13.3668C4.95668 13.3668 5.46668 12.8568 5.46668 12.2335C5.46668 11.6101 4.95668 11.1001 4.33335 11.1001ZM10 11.1001C9.37668 11.1001 8.87235 11.6101 8.87235 12.2335C8.87235 12.8568 9.37668 13.3668 10 13.3668C10.6234 13.3668 11.1334 12.8568 11.1334 12.2335C11.1334 11.6101 10.6234 11.1001 10 11.1001ZM4.42968 9.25846L4.44668 9.19046L4.95668 8.2668H9.17835C9.60335 8.2668 9.97735 8.03446 10.17 7.68313L12.3574 3.7108L11.3714 3.1668H11.3657L10.7424 4.30013L9.17835 7.13346H5.20035L5.12668 6.98046L3.85735 4.30013L3.31902 3.1668L2.78635 2.03346H0.93335V3.1668H2.06668L4.10668 7.4678L3.34168 8.85613C3.25102 9.0148 3.20002 9.2018 3.20002 9.40013C3.20002 10.0235 3.71002 10.5335 4.33335 10.5335H11.1334V9.40013H4.57135C4.49768 9.40013 4.42968 9.3378 4.42968 9.25846Z"/>
</g>
<defs>
<clipPath id="clip0_221_594">
<rect width="13.6" height="13.6" transform="translate(0.366699 0.900391)"/>
</clipPath>
</defs>
</svg>
