<svg viewBox="0 0 24 24" fill="none" xmlns="http://www.w3.org/2000/svg">
<path d="M17.6836 9.27925L12.9055 2.16927C12.8034 2.02571 12.6675 1.90917 12.5097 1.82982C12.3519 1.75046 12.1769 1.71072 12 1.71406C11.6509 1.71406 11.3018 1.8658 11.0945 2.18011L6.31636 9.27925H1.09091C0.490909 9.27925 0 9.76697 0 10.3631C0 10.4606 0.0109091 10.5582 0.0436363 10.6557L2.81455 20.7029C3.06545 21.6133 3.90545 22.2853 4.90909 22.2853H19.0909C20.0945 22.2853 20.9345 21.6133 21.1964 20.7029L23.9673 10.6557L24 10.3631C24 9.76697 23.5091 9.27925 22.9091 9.27925H17.6836ZM8.72727 9.27925L12 4.51036L15.2727 9.27925H8.72727ZM12 17.9499C10.8 17.9499 9.81818 16.9745 9.81818 15.7823C9.81818 14.5901 10.8 13.6146 12 13.6146C13.2 13.6146 14.1818 14.5901 14.1818 15.7823C14.1818 16.9745 13.2 17.9499 12 17.9499Z"/>
</svg>
