<svg viewBox="0 0 180 264" fill="none" xmlns="http://www.w3.org/2000/svg">
<path d="M178.703 121.335C175.202 100.375 156.95 84.4023 134.962 84.4023H45.0416C23.0622 84.4023 4.81498 100.362 1.30048 121.31C0.894812 123.706 0.685547 126.17 0.685547 128.68V206.89C0.685547 209.401 0.894812 211.861 1.30048 214.257C4.09757 230.946 16.2509 244.471 32.1964 249.276C36.2618 250.503 40.5748 251.164 45.0416 251.164H134.962C139.429 251.164 143.742 250.503 147.807 249.276C163.757 244.467 175.915 230.933 178.703 214.231C179.105 211.844 179.314 209.393 179.314 206.89V128.68C179.314 126.178 179.105 123.723 178.703 121.335ZM142.572 249.276C140.099 249.715 137.559 249.945 134.962 249.945H45.0416C42.4452 249.945 39.9044 249.715 37.4319 249.276C17.2417 245.691 1.91117 228.077 1.91117 206.89V180.93C1.91117 107.575 61.4781 85.6258 134.962 85.6258C158.782 85.6258 178.093 104.902 178.093 128.68V206.89C120.268 214.615 162.762 245.691 142.572 249.276Z" fill="#3F3D56"/>
<path d="M107.895 143.421L111.354 165.867L162.093 158.961L157.192 132.734L107.895 143.421Z" fill="#009EDD"/>
<path d="M147.716 17.4639H126.737V39.14H147.716V17.4639Z" fill="#2F2E41"/>
<path d="M128.652 40.3965L133.841 24.8564H143.956L144.487 40.3965H128.652Z" fill="#FFB6B6"/>
<path opacity="0.1" d="M128.652 40.3965L133.841 24.8564H143.956L144.487 40.3965H128.652Z" fill="black"/>
<path d="M134.129 178.818L133.553 238.676L132.976 243.28V249.89L141.625 250.762L142.201 237.525C142.201 237.525 151.426 211.625 149.12 191.48C146.814 171.336 147.967 177.091 147.967 177.091L134.129 178.818Z" fill="#FFB6B6"/>
<path d="M139.619 183.518L118.343 239.485L117.202 243.983L114.793 250.14L106.419 247.812L110.706 235.272C110.706 235.272 111.552 207.796 121.041 189.869C130.53 171.943 127.359 176.885 127.359 176.885L139.619 183.518Z" fill="#FFB6B6"/>
<path d="M128.652 38.6697L113.084 45.5764L123.024 96.8079L121.454 170.339L111.075 192.21C111.075 192.21 109.337 204.718 127.21 196.66C145.084 188.602 165.264 186.3 165.264 186.3L160.363 152.63L156.039 64.282L156.615 44.7131L143.931 36.6553L128.652 38.6697V38.6697Z" fill="#2F2E41"/>
<path d="M119.981 193.009L102.706 164.141L122.448 96.8081L113.084 45.5766L129.511 38.5566C129.511 38.5566 138.015 46.8231 138.015 53.6414C138.015 60.4597 119.981 193.009 119.981 193.009Z" fill="#E6E6E6"/>
<path d="M157.459 187.254L141.778 52.7876C141.58 51.0897 141.87 49.3706 142.615 47.8314L147.102 38.5566L164.688 43.5622L157.619 98.5348L176.507 152.63L157.459 187.254H157.459Z" fill="#E6E6E6"/>
<path d="M143.354 249.611C143.354 249.611 132.399 243.28 131.246 246.733C130.093 250.186 129.516 253.064 129.516 253.064C129.516 253.064 126.634 264 135.282 264C143.931 264 143.354 259.026 143.354 259.026V249.611Z" fill="#2F2E41"/>
<path d="M105.228 246.112C105.228 246.112 117.739 244.192 117.555 247.828C117.371 251.463 116.859 254.353 116.859 254.353C116.859 254.353 115.559 265.587 107.503 262.446C99.4473 259.305 101.797 254.882 101.797 254.882L105.228 246.112Z" fill="#2F2E41"/>
<path d="M139.573 33.3139C147.489 33.3139 153.906 26.9078 153.906 19.0056C153.906 11.1033 147.489 4.69727 139.573 4.69727C131.657 4.69727 125.239 11.1033 125.239 19.0056C125.239 26.9078 131.657 33.3139 139.573 33.3139Z" fill="#FFB6B6"/>
<path d="M151.024 6.25495C150.357 2.72716 146.729 0.34103 143.146 0.0418153C139.562 -0.257399 136.051 1.09351 132.824 2.67741C130.636 3.7511 128.482 4.96128 126.71 6.63253C124.937 8.30378 123.561 10.487 123.243 12.8998C123.131 13.7535 123.145 14.6454 122.795 15.4324C122.358 16.4154 121.419 17.083 120.853 17.998C119.837 19.6389 120.303 22.0261 121.863 23.1651C119.903 23.9991 117.888 24.8691 116.394 26.3857C114.899 27.9022 114.036 30.2437 114.856 32.2072C115.146 32.9019 115.626 33.51 115.874 34.2207C116.345 35.5704 115.897 37.1038 115.061 38.2645C114.226 39.4253 113.047 40.286 111.889 41.1263C114.865 41.7087 117.903 42.1624 120.924 41.8907C123.945 41.6191 126.976 40.5623 129.164 38.4652C131.351 36.368 132.554 33.133 131.77 30.2086C131.168 27.9683 129.487 26.0053 129.488 23.686C129.489 21.9033 130.493 20.2951 131.463 18.798L137.816 8.9894C138.197 8.40127 138.598 7.79267 139.2 7.43295C140.224 6.82098 141.553 7.0901 142.632 7.59803C143.712 8.10597 144.698 8.83471 145.849 9.14965C148.199 9.79241 150.924 8.31631 151.664 5.99985" fill="#2F2E41"/>
<path d="M142.557 35.3538C141.363 36.5084 139.642 36.8803 138.047 37.3482C136.451 37.816 134.754 38.5519 134.036 40.0489C133.332 41.5168 133.844 43.3802 135.009 44.5181C136.175 45.6561 137.868 46.1355 139.498 46.1129C141.128 46.0903 142.717 45.6133 144.25 45.0596C148.442 43.5453 152.412 41.4212 155.997 38.7751C153.675 38.1338 152.156 35.4275 152.821 33.1162C153.361 31.2359 155.014 29.9245 156.139 28.3229C158.076 25.5651 158.399 21.9299 157.758 18.6231C157.116 15.3164 155.606 12.2512 154.112 9.23144C153.639 8.27686 153.156 7.30613 152.419 6.53643C151.682 5.76673 150.638 5.2153 149.578 5.32558C147.817 5.50857 146.693 7.4378 146.681 9.20465C146.669 10.9715 147.446 12.632 148.034 14.2983C148.641 16.0149 149.063 17.8345 148.9 19.6476C148.764 21.167 148.21 22.647 147.316 23.8839C146.625 24.8391 145.745 25.6406 144.994 26.5493C144.413 27.2518 143.898 28.0475 143.745 28.9454C143.468 30.5795 144.428 32.2329 144.165 33.8694C143.886 35.5993 142.063 36.9237 140.328 36.6556" fill="#2F2E41"/>
<path d="M98.72 235.198C125.787 235.198 147.729 213.295 147.729 186.276C147.729 159.257 125.787 137.354 98.72 137.354C71.6533 137.354 49.7114 159.257 49.7114 186.276C49.7114 213.295 71.6533 235.198 98.72 235.198Z" fill="#009EDD"/>
<path d="M112.404 136.518C111.81 140.758 109.138 143.889 106.435 143.511C103.732 143.134 102.023 139.391 102.617 135.15C102.831 133.453 103.449 131.831 104.42 130.421L107.162 112.489L115.564 113.953L111.969 131.475C112.515 133.098 112.664 134.827 112.404 136.518Z" fill="#FFB6B6"/>
<path d="M119.715 44.7128C119.715 44.7128 111.066 41.835 109.913 52.195C108.76 62.555 107.607 75.2173 107.607 75.2173C107.607 75.2173 102.418 87.304 104.724 93.6351C107.03 99.9662 111.066 95.5521 107.03 100.925C102.994 106.297 103.556 123.974 103.556 123.974L116.544 123.322C116.544 123.322 123.751 75.7928 123.751 74.6417C123.751 73.4906 119.715 44.7128 119.715 44.7128V44.7128Z" fill="#E6E6E6"/>
<path d="M175.93 134.594C176.091 138.872 174.01 142.422 171.282 142.524C168.555 142.625 166.215 139.24 166.055 134.961C165.967 133.252 166.291 131.548 166.998 129.99L166.547 111.855L175.076 111.825L174.616 129.705C175.439 131.207 175.889 132.883 175.93 134.594V134.594Z" fill="#FFB6B6"/>
<path d="M162.616 44.5188C162.616 44.5188 171.315 41.7957 172.282 52.1747C173.25 62.5536 174.176 81.5655 174.176 81.5655C174.176 81.5655 179.148 93.7428 176.729 100.032C174.31 106.321 170.353 101.835 174.292 107.279C178.232 112.723 176.818 128.075 176.818 128.075L163.844 127.191C163.844 127.191 158.024 81.853 158.045 80.7021C158.066 79.5512 162.616 44.5188 162.616 44.5188V44.5188Z" fill="#E6E6E6"/>
<path d="M133.558 182.332H126.327C125.202 175.702 121.731 169.699 116.547 165.417C104.616 155.562 86.9551 157.246 77.1007 169.177C77.0671 169.215 77.0347 169.254 77.0037 169.294C76.2163 170.315 76.4054 171.78 77.4261 172.568C78.4465 173.355 79.9123 173.166 80.6999 172.146C84.9807 166.959 91.4602 163.659 98.7053 163.659C109.797 163.66 119.358 171.464 121.58 182.332H115.203C114.93 182.332 114.666 182.427 114.457 182.602C113.961 183.015 113.894 183.75 114.307 184.246L123.484 195.263C123.529 195.317 123.579 195.367 123.633 195.412C124.128 195.824 124.864 195.758 125.277 195.263L134.455 184.246C134.629 184.036 134.725 183.772 134.725 183.499C134.725 182.855 134.203 182.332 133.558 182.332V182.332Z" fill="white"/>
<path d="M119.985 201.432C118.964 200.645 117.498 200.834 116.711 201.854C113.315 205.966 108.615 208.791 103.391 209.86C90.7566 212.447 78.4176 204.302 75.8309 191.668H82.2077C82.8523 191.668 83.3746 191.145 83.3744 190.501C83.3742 190.228 83.2785 189.964 83.104 189.754L73.9262 178.737C73.5135 178.242 72.7775 178.175 72.2825 178.588C72.2284 178.633 72.1786 178.683 72.1336 178.737L62.9558 189.754C62.5434 190.249 62.6105 190.985 63.1058 191.398C63.3153 191.572 63.5794 191.668 63.8523 191.668H71.0832C72.2083 198.297 75.6798 204.301 80.8641 208.583C92.7951 218.438 110.456 216.754 120.31 204.823C120.344 204.785 120.376 204.746 120.407 204.706C121.194 203.685 121.005 202.219 119.985 201.432H119.985V201.432Z" fill="white"/>
</svg>
